<mxfile host="Electron" agent="Mozilla/5.0 (X11; Linux x86_64) AppleWebKit/537.36 (KHTML, like Gecko) draw.io/26.1.1 Chrome/132.0.6834.210 Electron/34.5.0 Safari/537.36" version="26.1.1">
  <diagram name="第 1 页" id="qZBS6BFGT_fbDx9XYUuw">
    <mxGraphModel dx="938" dy="820" grid="1" gridSize="10" guides="0" tooltips="1" connect="1" arrows="1" fold="1" page="1" pageScale="1" pageWidth="1169" pageHeight="827" math="0" shadow="0">
      <root>
        <mxCell id="0" />
        <mxCell id="1" parent="0" />
        <mxCell id="apDv6MEX-A2CdWdYZprh-1" value="后端服务器&lt;div&gt;Rust，axum&lt;div&gt;RmService&lt;/div&gt;&lt;/div&gt;" style="rounded=0;whiteSpace=wrap;html=1;fillColor=#dae8fc;strokeColor=#6c8ebf;" parent="1" vertex="1">
          <mxGeometry x="340" y="340" width="120" height="60" as="geometry" />
        </mxCell>
        <mxCell id="apDv6MEX-A2CdWdYZprh-2" value="零售管理&lt;div&gt;C++，Qt&lt;/div&gt;&lt;div&gt;&lt;div&gt;RmAdmin&lt;/div&gt;&lt;/div&gt;" style="rounded=0;whiteSpace=wrap;html=1;fillColor=#f8cecc;strokeColor=#b85450;" parent="1" vertex="1">
          <mxGeometry x="160" y="240" width="120" height="60" as="geometry" />
        </mxCell>
        <mxCell id="apDv6MEX-A2CdWdYZprh-3" value="业绩分析&lt;div&gt;Python，NiceGUI&lt;/div&gt;&lt;div&gt;RmAnalysis&lt;/div&gt;" style="rounded=0;whiteSpace=wrap;html=1;fillColor=#f8cecc;strokeColor=#b85450;" parent="1" vertex="1">
          <mxGeometry x="510" y="290" width="120" height="60" as="geometry" />
        </mxCell>
        <mxCell id="apDv6MEX-A2CdWdYZprh-8" value="结算&lt;div&gt;Rust，iced&lt;/div&gt;&lt;div&gt;EasyCheckout&lt;/div&gt;" style="rounded=0;whiteSpace=wrap;html=1;fillColor=#d5e8d4;strokeColor=#82b366;" parent="1" vertex="1">
          <mxGeometry x="340" y="420" width="120" height="60" as="geometry" />
        </mxCell>
        <mxCell id="apDv6MEX-A2CdWdYZprh-10" value="管理者手机 App&lt;div&gt;Kotlin，Jetpack&lt;/div&gt;&lt;div&gt;ShopEyes Owner&lt;/div&gt;" style="rounded=0;whiteSpace=wrap;html=1;fillColor=#f8cecc;strokeColor=#b85450;" parent="1" vertex="1">
          <mxGeometry x="340" y="260" width="120" height="60" as="geometry" />
        </mxCell>
        <mxCell id="apDv6MEX-A2CdWdYZprh-12" value="关键词搜索引擎&lt;div&gt;Rust&lt;/div&gt;&lt;div&gt;“探寻”&lt;/div&gt;" style="rounded=0;whiteSpace=wrap;html=1;fillColor=#dae8fc;strokeColor=#6c8ebf;" parent="1" vertex="1">
          <mxGeometry x="160" y="320" width="120" height="60" as="geometry" />
        </mxCell>
        <mxCell id="apDv6MEX-A2CdWdYZprh-14" value="一键部署助手&lt;div&gt;Rust&lt;/div&gt;&lt;div&gt;RmInit&lt;/div&gt;" style="rounded=0;whiteSpace=wrap;html=1;fillColor=#dae8fc;strokeColor=#6c8ebf;" parent="1" vertex="1">
          <mxGeometry x="480" y="420" width="120" height="60" as="geometry" />
        </mxCell>
        <mxCell id="apDv6MEX-A2CdWdYZprh-15" value="称重模块&lt;div&gt;Rust，C++，PlatformIO&lt;/div&gt;&lt;div&gt;（无名）&lt;/div&gt;" style="rounded=0;whiteSpace=wrap;html=1;fillColor=#d5e8d4;strokeColor=#82b366;" parent="1" vertex="1">
          <mxGeometry x="320" y="500" width="150" height="60" as="geometry" />
        </mxCell>
        <mxCell id="apDv6MEX-A2CdWdYZprh-19" value="" style="endArrow=none;dashed=1;html=1;rounded=0;" parent="1" source="apDv6MEX-A2CdWdYZprh-1" target="apDv6MEX-A2CdWdYZprh-10" edge="1">
          <mxGeometry width="50" height="50" relative="1" as="geometry">
            <mxPoint x="270" y="280" as="sourcePoint" />
            <mxPoint x="320" y="230" as="targetPoint" />
          </mxGeometry>
        </mxCell>
        <mxCell id="apDv6MEX-A2CdWdYZprh-20" value="" style="endArrow=none;dashed=1;html=1;rounded=0;" parent="1" source="apDv6MEX-A2CdWdYZprh-1" target="apDv6MEX-A2CdWdYZprh-8" edge="1">
          <mxGeometry width="50" height="50" relative="1" as="geometry">
            <mxPoint x="70" y="450" as="sourcePoint" />
            <mxPoint x="120" y="400" as="targetPoint" />
          </mxGeometry>
        </mxCell>
        <mxCell id="apDv6MEX-A2CdWdYZprh-21" value="" style="endArrow=none;dashed=1;html=1;rounded=0;" parent="1" source="apDv6MEX-A2CdWdYZprh-1" target="apDv6MEX-A2CdWdYZprh-3" edge="1">
          <mxGeometry width="50" height="50" relative="1" as="geometry">
            <mxPoint x="190" y="320" as="sourcePoint" />
            <mxPoint x="240" y="270" as="targetPoint" />
          </mxGeometry>
        </mxCell>
        <mxCell id="apDv6MEX-A2CdWdYZprh-22" value="" style="endArrow=none;dashed=1;html=1;rounded=0;" parent="1" source="apDv6MEX-A2CdWdYZprh-1" target="apDv6MEX-A2CdWdYZprh-2" edge="1">
          <mxGeometry width="50" height="50" relative="1" as="geometry">
            <mxPoint x="90" y="360" as="sourcePoint" />
            <mxPoint x="140" y="310" as="targetPoint" />
          </mxGeometry>
        </mxCell>
        <mxCell id="apDv6MEX-A2CdWdYZprh-25" value="AI商品识别模块&lt;div&gt;Python，PyTorch，YOLO&lt;/div&gt;&lt;div&gt;yolod&lt;/div&gt;" style="rounded=0;whiteSpace=wrap;html=1;fillColor=#d5e8d4;strokeColor=#82b366;" parent="1" vertex="1">
          <mxGeometry x="490" y="500" width="160" height="60" as="geometry" />
        </mxCell>
        <mxCell id="apDv6MEX-A2CdWdYZprh-29" value="" style="endArrow=classic;html=1;rounded=0;" parent="1" source="apDv6MEX-A2CdWdYZprh-1" target="apDv6MEX-A2CdWdYZprh-12" edge="1">
          <mxGeometry width="50" height="50" relative="1" as="geometry">
            <mxPoint x="489.4267515923566" y="314.5" as="sourcePoint" />
            <mxPoint x="-10" y="410.5" as="targetPoint" />
          </mxGeometry>
        </mxCell>
        <mxCell id="apDv6MEX-A2CdWdYZprh-30" value="" style="endArrow=classic;html=1;rounded=0;" parent="1" source="apDv6MEX-A2CdWdYZprh-1" target="apDv6MEX-A2CdWdYZprh-14" edge="1">
          <mxGeometry width="50" height="50" relative="1" as="geometry">
            <mxPoint x="30" y="430" as="sourcePoint" />
            <mxPoint x="80" y="380" as="targetPoint" />
          </mxGeometry>
        </mxCell>
        <mxCell id="apDv6MEX-A2CdWdYZprh-31" value="" style="endArrow=classic;html=1;rounded=0;" parent="1" source="apDv6MEX-A2CdWdYZprh-8" target="apDv6MEX-A2CdWdYZprh-15" edge="1">
          <mxGeometry width="50" height="50" relative="1" as="geometry">
            <mxPoint x="460" y="560" as="sourcePoint" />
            <mxPoint x="510" y="510" as="targetPoint" />
          </mxGeometry>
        </mxCell>
        <mxCell id="apDv6MEX-A2CdWdYZprh-32" value="" style="endArrow=classic;html=1;rounded=0;" parent="1" source="apDv6MEX-A2CdWdYZprh-8" target="apDv6MEX-A2CdWdYZprh-25" edge="1">
          <mxGeometry width="50" height="50" relative="1" as="geometry">
            <mxPoint x="540" y="600" as="sourcePoint" />
            <mxPoint x="590" y="550" as="targetPoint" />
          </mxGeometry>
        </mxCell>
        <mxCell id="apDv6MEX-A2CdWdYZprh-33" value="YOLO数据集管理&lt;div&gt;Rust，iced&lt;/div&gt;&lt;div&gt;EasyDataset&lt;/div&gt;" style="rounded=0;whiteSpace=wrap;html=1;fillColor=#d5e8d4;strokeColor=#82b366;" parent="1" vertex="1">
          <mxGeometry x="670" y="500" width="120" height="60" as="geometry" />
        </mxCell>
        <mxCell id="apDv6MEX-A2CdWdYZprh-34" value="" style="endArrow=classic;html=1;rounded=0;" parent="1" source="apDv6MEX-A2CdWdYZprh-33" target="apDv6MEX-A2CdWdYZprh-25" edge="1">
          <mxGeometry width="50" height="50" relative="1" as="geometry">
            <mxPoint x="990" y="702.5" as="sourcePoint" />
            <mxPoint x="1040" y="652.5" as="targetPoint" />
          </mxGeometry>
        </mxCell>
        <mxCell id="apDv6MEX-A2CdWdYZprh-35" value="服务器守护者&lt;div&gt;Rust&lt;/div&gt;&lt;div&gt;RmGuard&lt;/div&gt;" style="rounded=0;whiteSpace=wrap;html=1;fillColor=#dae8fc;strokeColor=#6c8ebf;" parent="1" vertex="1">
          <mxGeometry x="670" y="340" width="120" height="60" as="geometry" />
        </mxCell>
        <mxCell id="apDv6MEX-A2CdWdYZprh-36" value="" style="endArrow=classic;html=1;rounded=0;" parent="1" source="apDv6MEX-A2CdWdYZprh-1" target="apDv6MEX-A2CdWdYZprh-35" edge="1">
          <mxGeometry width="50" height="50" relative="1" as="geometry">
            <mxPoint x="90" y="500" as="sourcePoint" />
            <mxPoint x="140" y="450" as="targetPoint" />
          </mxGeometry>
        </mxCell>
        <mxCell id="apDv6MEX-A2CdWdYZprh-38" value="阿里云“百炼”&lt;div&gt;AI推理服务&lt;/div&gt;" style="ellipse;shape=cloud;whiteSpace=wrap;html=1;fillColor=#dae8fc;strokeColor=#6c8ebf;" parent="1" vertex="1">
          <mxGeometry x="670" y="420" width="120" height="60" as="geometry" />
        </mxCell>
        <mxCell id="apDv6MEX-A2CdWdYZprh-39" value="" style="endArrow=classic;html=1;rounded=0;" parent="1" source="apDv6MEX-A2CdWdYZprh-1" target="apDv6MEX-A2CdWdYZprh-38" edge="1">
          <mxGeometry width="50" height="50" relative="1" as="geometry">
            <mxPoint x="30" y="450" as="sourcePoint" />
            <mxPoint x="80" y="400" as="targetPoint" />
          </mxGeometry>
        </mxCell>
        <mxCell id="apDv6MEX-A2CdWdYZprh-45" value="AI推理管理模块&lt;div&gt;Rust&lt;/div&gt;&lt;div&gt;manyshot&lt;/div&gt;" style="rounded=0;whiteSpace=wrap;html=1;fillColor=#dae8fc;strokeColor=#6c8ebf;" parent="1" vertex="1">
          <mxGeometry x="160" y="400" width="120" height="60" as="geometry" />
        </mxCell>
        <mxCell id="apDv6MEX-A2CdWdYZprh-46" value="" style="endArrow=classic;html=1;rounded=0;" parent="1" source="apDv6MEX-A2CdWdYZprh-1" target="apDv6MEX-A2CdWdYZprh-45" edge="1">
          <mxGeometry width="50" height="50" relative="1" as="geometry">
            <mxPoint x="50" y="340" as="sourcePoint" />
            <mxPoint x="100" y="290" as="targetPoint" />
          </mxGeometry>
        </mxCell>
        <mxCell id="apDv6MEX-A2CdWdYZprh-47" value="商品管理" style="ellipse;whiteSpace=wrap;html=1;fillColor=#f8cecc;strokeColor=#b85450;" parent="1" vertex="1">
          <mxGeometry x="40" y="270" width="80" height="20" as="geometry" />
        </mxCell>
        <mxCell id="apDv6MEX-A2CdWdYZprh-48" value="库存管理" style="ellipse;whiteSpace=wrap;html=1;fillColor=#f8cecc;strokeColor=#b85450;" parent="1" vertex="1">
          <mxGeometry x="40" y="300" width="80" height="20" as="geometry" />
        </mxCell>
        <mxCell id="apDv6MEX-A2CdWdYZprh-50" value="AI商品文案" style="ellipse;whiteSpace=wrap;html=1;fillColor=#f8cecc;strokeColor=#b85450;" parent="1" vertex="1">
          <mxGeometry x="40" y="240" width="80" height="20" as="geometry" />
        </mxCell>
        <mxCell id="apDv6MEX-A2CdWdYZprh-55" value="" style="endArrow=classic;html=1;rounded=0;" parent="1" source="apDv6MEX-A2CdWdYZprh-2" target="apDv6MEX-A2CdWdYZprh-50" edge="1">
          <mxGeometry width="50" height="50" relative="1" as="geometry">
            <mxPoint x="-530" y="456.5" as="sourcePoint" />
            <mxPoint x="-480" y="406.5" as="targetPoint" />
          </mxGeometry>
        </mxCell>
        <mxCell id="apDv6MEX-A2CdWdYZprh-56" value="" style="endArrow=classic;html=1;rounded=0;" parent="1" source="apDv6MEX-A2CdWdYZprh-2" target="apDv6MEX-A2CdWdYZprh-47" edge="1">
          <mxGeometry width="50" height="50" relative="1" as="geometry">
            <mxPoint x="-410" y="526.5" as="sourcePoint" />
            <mxPoint x="-360" y="476.5" as="targetPoint" />
          </mxGeometry>
        </mxCell>
        <mxCell id="apDv6MEX-A2CdWdYZprh-57" value="" style="endArrow=classic;html=1;rounded=0;" parent="1" source="apDv6MEX-A2CdWdYZprh-2" target="apDv6MEX-A2CdWdYZprh-48" edge="1">
          <mxGeometry width="50" height="50" relative="1" as="geometry">
            <mxPoint x="-260" y="566.5" as="sourcePoint" />
            <mxPoint x="-210" y="516.5" as="targetPoint" />
          </mxGeometry>
        </mxCell>
        <mxCell id="apDv6MEX-A2CdWdYZprh-59" value="&lt;div&gt;（点货）&lt;span style=&quot;background-color: transparent; color: light-dark(rgb(0, 0, 0), rgb(255, 255, 255));&quot;&gt;AI条码识别&lt;/span&gt;&lt;/div&gt;" style="ellipse;whiteSpace=wrap;html=1;fillColor=#f8cecc;strokeColor=#b85450;" parent="1" vertex="1">
          <mxGeometry x="560" y="250" width="130" height="30" as="geometry" />
        </mxCell>
        <mxCell id="apDv6MEX-A2CdWdYZprh-60" value="消费者手机 App&lt;div&gt;Kotlin，Jetpack&lt;/div&gt;&lt;div&gt;ShopEyes Guest&lt;/div&gt;" style="rounded=0;whiteSpace=wrap;html=1;fillColor=#d5e8d4;strokeColor=#82b366;" parent="1" vertex="1">
          <mxGeometry x="160" y="500" width="120" height="60" as="geometry" />
        </mxCell>
        <mxCell id="apDv6MEX-A2CdWdYZprh-62" value="" style="endArrow=none;dashed=1;html=1;rounded=0;" parent="1" source="apDv6MEX-A2CdWdYZprh-1" target="apDv6MEX-A2CdWdYZprh-60" edge="1">
          <mxGeometry width="50" height="50" relative="1" as="geometry">
            <mxPoint x="120" y="222" as="sourcePoint" />
            <mxPoint x="340" y="158" as="targetPoint" />
          </mxGeometry>
        </mxCell>
        <mxCell id="apDv6MEX-A2CdWdYZprh-63" value="" style="endArrow=classic;html=1;rounded=0;" parent="1" source="apDv6MEX-A2CdWdYZprh-10" target="apDv6MEX-A2CdWdYZprh-59" edge="1">
          <mxGeometry width="50" height="50" relative="1" as="geometry">
            <mxPoint x="170" y="217.5" as="sourcePoint" />
            <mxPoint x="220" y="167.5" as="targetPoint" />
          </mxGeometry>
        </mxCell>
        <mxCell id="apDv6MEX-A2CdWdYZprh-65" value="&lt;div&gt;拍照上传&lt;/div&gt;" style="ellipse;whiteSpace=wrap;html=1;fillColor=#f8cecc;strokeColor=#b85450;" parent="1" vertex="1">
          <mxGeometry x="480" y="240" width="70" height="24" as="geometry" />
        </mxCell>
        <mxCell id="apDv6MEX-A2CdWdYZprh-66" value="" style="endArrow=classic;html=1;rounded=0;" parent="1" source="apDv6MEX-A2CdWdYZprh-10" target="apDv6MEX-A2CdWdYZprh-65" edge="1">
          <mxGeometry width="50" height="50" relative="1" as="geometry">
            <mxPoint x="100" y="166.5" as="sourcePoint" />
            <mxPoint x="340" y="166.5" as="targetPoint" />
          </mxGeometry>
        </mxCell>
        <mxCell id="apDv6MEX-A2CdWdYZprh-67" value="&lt;div&gt;AI商品推荐&lt;/div&gt;" style="ellipse;whiteSpace=wrap;html=1;fillColor=#d5e8d4;strokeColor=#82b366;" parent="1" vertex="1">
          <mxGeometry x="40" y="530" width="80" height="30" as="geometry" />
        </mxCell>
        <mxCell id="apDv6MEX-A2CdWdYZprh-68" value="" style="endArrow=classic;html=1;rounded=0;" parent="1" source="apDv6MEX-A2CdWdYZprh-60" target="apDv6MEX-A2CdWdYZprh-67" edge="1">
          <mxGeometry width="50" height="50" relative="1" as="geometry">
            <mxPoint x="1196" y="432.5" as="sourcePoint" />
            <mxPoint x="1246" y="382.5" as="targetPoint" />
          </mxGeometry>
        </mxCell>
        <mxCell id="apDv6MEX-A2CdWdYZprh-70" value="商品检索" style="ellipse;whiteSpace=wrap;html=1;fillColor=#d5e8d4;strokeColor=#82b366;" parent="1" vertex="1">
          <mxGeometry x="40" y="490" width="80" height="30" as="geometry" />
        </mxCell>
        <mxCell id="apDv6MEX-A2CdWdYZprh-71" value="" style="endArrow=classic;html=1;rounded=0;" parent="1" source="apDv6MEX-A2CdWdYZprh-60" target="apDv6MEX-A2CdWdYZprh-70" edge="1">
          <mxGeometry width="50" height="50" relative="1" as="geometry">
            <mxPoint x="1366" y="392.5" as="sourcePoint" />
            <mxPoint x="1416" y="342.5" as="targetPoint" />
          </mxGeometry>
        </mxCell>
        <mxCell id="apDv6MEX-A2CdWdYZprh-73" value="关键词整理" style="ellipse;whiteSpace=wrap;html=1;fillColor=#dae8fc;strokeColor=#6c8ebf;" parent="1" vertex="1">
          <mxGeometry x="40" y="410" width="80" height="30" as="geometry" />
        </mxCell>
        <mxCell id="apDv6MEX-A2CdWdYZprh-74" value="AI分词" style="ellipse;whiteSpace=wrap;html=1;fillColor=#dae8fc;strokeColor=#6c8ebf;" parent="1" vertex="1">
          <mxGeometry x="40" y="340" width="80" height="20" as="geometry" />
        </mxCell>
        <mxCell id="apDv6MEX-A2CdWdYZprh-75" value="AI近义词发现" style="ellipse;whiteSpace=wrap;html=1;fillColor=#dae8fc;strokeColor=#6c8ebf;" parent="1" vertex="1">
          <mxGeometry x="40" y="370" width="80" height="30" as="geometry" />
        </mxCell>
        <mxCell id="apDv6MEX-A2CdWdYZprh-76" value="" style="endArrow=classic;html=1;rounded=0;" parent="1" source="apDv6MEX-A2CdWdYZprh-12" target="apDv6MEX-A2CdWdYZprh-73" edge="1">
          <mxGeometry width="50" height="50" relative="1" as="geometry">
            <mxPoint x="385" y="365.5" as="sourcePoint" />
            <mxPoint x="550" y="451.75" as="targetPoint" />
          </mxGeometry>
        </mxCell>
        <mxCell id="apDv6MEX-A2CdWdYZprh-77" value="" style="endArrow=classic;html=1;rounded=0;" parent="1" source="apDv6MEX-A2CdWdYZprh-12" target="apDv6MEX-A2CdWdYZprh-74" edge="1">
          <mxGeometry width="50" height="50" relative="1" as="geometry">
            <mxPoint x="385" y="380.75" as="sourcePoint" />
            <mxPoint x="550" y="441.75" as="targetPoint" />
          </mxGeometry>
        </mxCell>
        <mxCell id="apDv6MEX-A2CdWdYZprh-78" value="" style="endArrow=classic;html=1;rounded=0;" parent="1" source="apDv6MEX-A2CdWdYZprh-12" target="apDv6MEX-A2CdWdYZprh-75" edge="1">
          <mxGeometry width="50" height="50" relative="1" as="geometry">
            <mxPoint x="385" y="350.0643957047686" as="sourcePoint" />
            <mxPoint x="590" y="431.75" as="targetPoint" />
          </mxGeometry>
        </mxCell>
        <mxCell id="apDv6MEX-A2CdWdYZprh-80" value="AI图表分析" style="ellipse;whiteSpace=wrap;html=1;fillColor=#f8cecc;strokeColor=#b85450;" parent="1" vertex="1">
          <mxGeometry x="710" y="260" width="80" height="20" as="geometry" />
        </mxCell>
        <mxCell id="apDv6MEX-A2CdWdYZprh-81" value="AI运营建议" style="ellipse;whiteSpace=wrap;html=1;fillColor=#f8cecc;strokeColor=#b85450;" parent="1" vertex="1">
          <mxGeometry x="710" y="300" width="80" height="20" as="geometry" />
        </mxCell>
        <mxCell id="apDv6MEX-A2CdWdYZprh-82" value="" style="endArrow=classic;html=1;rounded=0;" parent="1" source="apDv6MEX-A2CdWdYZprh-3" target="apDv6MEX-A2CdWdYZprh-81" edge="1">
          <mxGeometry width="50" height="50" relative="1" as="geometry">
            <mxPoint x="300" y="160" as="sourcePoint" />
            <mxPoint x="350" y="110" as="targetPoint" />
          </mxGeometry>
        </mxCell>
        <mxCell id="apDv6MEX-A2CdWdYZprh-83" value="" style="endArrow=classic;html=1;rounded=0;" parent="1" source="apDv6MEX-A2CdWdYZprh-3" target="apDv6MEX-A2CdWdYZprh-80" edge="1">
          <mxGeometry width="50" height="50" relative="1" as="geometry">
            <mxPoint x="300" y="260" as="sourcePoint" />
            <mxPoint x="350" y="210" as="targetPoint" />
          </mxGeometry>
        </mxCell>
        <mxCell id="apDv6MEX-A2CdWdYZprh-4" value="模块名字&lt;div&gt;技术路线&lt;br&gt;&lt;div&gt;程序名字&lt;/div&gt;&lt;/div&gt;" style="rounded=0;whiteSpace=wrap;html=1;" parent="1" vertex="1">
          <mxGeometry x="160" y="580" width="70" height="50" as="geometry" />
        </mxCell>
        <mxCell id="apDv6MEX-A2CdWdYZprh-13" value="功能模块" style="ellipse;whiteSpace=wrap;html=1;" parent="1" vertex="1">
          <mxGeometry x="240" y="600" width="70" height="30" as="geometry" />
        </mxCell>
        <mxCell id="apDv6MEX-A2CdWdYZprh-37" value="云服务" style="ellipse;shape=cloud;whiteSpace=wrap;html=1;" parent="1" vertex="1">
          <mxGeometry x="320" y="600" width="70" height="30" as="geometry" />
        </mxCell>
        <mxCell id="apDv6MEX-A2CdWdYZprh-40" value="" style="endArrow=classic;html=1;rounded=0;" parent="1" edge="1">
          <mxGeometry width="50" height="50" relative="1" as="geometry">
            <mxPoint x="400" y="630" as="sourcePoint" />
            <mxPoint x="470" y="630" as="targetPoint" />
          </mxGeometry>
        </mxCell>
        <mxCell id="apDv6MEX-A2CdWdYZprh-41" value="“依赖于”&lt;div&gt;或者“具有”&lt;/div&gt;" style="text;html=1;align=center;verticalAlign=middle;whiteSpace=wrap;rounded=0;" parent="1" vertex="1">
          <mxGeometry x="400" y="590" width="70" height="30" as="geometry" />
        </mxCell>
        <mxCell id="apDv6MEX-A2CdWdYZprh-42" value="" style="endArrow=none;dashed=1;html=1;rounded=0;" parent="1" edge="1">
          <mxGeometry width="50" height="50" relative="1" as="geometry">
            <mxPoint x="480" y="630" as="sourcePoint" />
            <mxPoint x="550" y="630" as="targetPoint" />
          </mxGeometry>
        </mxCell>
        <mxCell id="apDv6MEX-A2CdWdYZprh-44" value="有关联" style="text;html=1;align=center;verticalAlign=middle;whiteSpace=wrap;rounded=0;" parent="1" vertex="1">
          <mxGeometry x="480" y="590" width="70" height="30" as="geometry" />
        </mxCell>
        <mxCell id="M3V9KTSBly4arysllJw5-4" value="图例" style="text;html=1;align=right;verticalAlign=middle;whiteSpace=wrap;rounded=0;fontSize=16;" vertex="1" parent="1">
          <mxGeometry x="40" y="580" width="80" height="50" as="geometry" />
        </mxCell>
      </root>
    </mxGraphModel>
  </diagram>
</mxfile>
